<svg id="concrete-logotipo" xmlns="http://www.w3.org/2000/svg" xmlns:xlink="http://www.w3.org/1999/xlink" viewBox="0 0 960.53 262.66"><defs><linearGradient id="Gradiente_sem_nome_29" x1="138.7" y1="253.16" x2="404.5" y2="223.55" gradientUnits="userSpaceOnUse"><stop offset="0" stop-color="#39e47a"/><stop offset="1" stop-color="#00c8ff"/></linearGradient><linearGradient id="Gradiente_sem_nome_32" x1="249.61" y1="152.91" x2="298.65" y2="310.08" gradientUnits="userSpaceOnUse"><stop offset="0" stop-color="#00c8ff"/><stop offset="1" stop-color="#4e7dff"/></linearGradient><linearGradient id="Gradiente_sem_nome_12" x1="273.37" y1="174.28" x2="270.11" y2="284.75" gradientUnits="userSpaceOnUse"><stop offset="0" stop-color="#5725b6"/><stop offset="1" stop-color="#4e7dff"/></linearGradient></defs><title>Logotipo-Negativo #3</title><g id="_3" data-name="#3"><g id="_Grupo_" data-name="&lt;Grupo&gt;"><path d="M221.76,111.9a66.22,66.22,0,0,1,41.31,14c12.13,9.18,23.29,23,34.1,42.18,7.89,14,23.6,18.65,40.23,23.56,19.44,5.73,39.54,11.66,52.47,32.43,9.84,15.79,14.93,32.39,15.11,49.33a89.31,89.31,0,0,1-11.37,44.21c-16.12,29-46.25,47.78-76.77,47.78A73.43,73.43,0,0,1,289.36,360c-25.19-10.12-33.74-25.56-42.8-41.9-9.51-17.17-19.35-34.92-48.93-43.52-20.06-5.83-36.2-17.18-46.68-32.8-9.56-14.26-14.15-31.34-13.29-49.39,1.58-33.19,23.05-70.45,67.43-78.88a90.3,90.3,0,0,1,16.67-1.65h0m0-4.6A93.66,93.66,0,0,0,204.24,109c-87.06,16.53-99.8,143.27-7.89,170,54.47,15.84,36.85,63.4,91.29,85.26a78,78,0,0,0,29.2,5.66c63.58,0,121.71-76.49,76.94-148.36-25.35-40.69-77.21-28.46-92.6-55.8-21.55-38.27-46.23-58.5-79.42-58.5Z" transform="translate(-92.33 -107.3)" style="fill:url(#Gradiente_sem_nome_29)"/></g><g id="_Grupo_2" data-name="&lt;Grupo&gt;"><path d="M266.74,151.37V156a78.45,78.45,0,0,1,45.33,14.87,91.88,91.88,0,0,1,31.25,38.85c4.39,10.2,5.58,21.46,3.55,33.46a84.83,84.83,0,0,1-13,32.07c-12.63,19.19-31.31,32.08-46.49,32.08-9.43,0-17-4.81-22.54-14.29-13.5-23.16-23.22-27.18-35.48-30.33-7.13-1.83-13.29-3.41-21.74-13.34a50.41,50.41,0,0,1-9.1-49.36,59.33,59.33,0,0,1,18-26c9.38-8,21.12-13.48,34.87-16.41A73.31,73.31,0,0,1,266.74,156v-4.6m0,0a78.31,78.31,0,0,0-16.29,1.72c-57.34,12.24-73.93,66.79-46.33,99.23,21.78,25.6,32.87,2.06,56.74,43,6.78,11.63,16.24,16.57,26.52,16.57,35.18,0,80-57.92,60.17-104-14.39-33.43-46.21-56.5-80.81-56.5Z" transform="translate(-92.33 -107.3)" style="fill:url(#Gradiente_sem_nome_32)"/></g><g id="_Grupo_3" data-name="&lt;Grupo&gt;"><path d="M269.37,178.78h.69c13.47.17,26.53,5.78,36.77,15.8a60.46,60.46,0,0,1,17.9,36.49c1.68,15.35-2,28.92-10.29,38.2a33.34,33.34,0,0,1-24.6,11.44c-13.81,0-24.61-9.19-28.9-24.58-4-14.32-14.45-15.83-22.86-17-8.21-1.18-14.69-2.12-18.15-12.9-3.76-11.7.37-20.9,4.49-26.55,9.1-12.48,27.17-20.87,45-20.87m0-4.6c-30.63,0-63.44,23.48-53.82,53.42,8.45,26.34,34.43,6.28,41,29.77,5.31,19.08,19.12,27.95,33.33,27.95,21.2,0,43.29-19.73,39.46-54.74-3.28-30-28.35-56-59.18-56.39Z" transform="translate(-92.33 -107.3)" style="fill:url(#Gradiente_sem_nome_12)"/></g></g><g id="concrete"><path id="_Caminho_composto_" data-name="&lt;Caminho composto&gt;" d="M105.61,264.54c-8.74-8.92-13.28-18.94-13.28-32.89,0-13.56,4.78-24,13.52-32.86,8.91-8.91,19.92-13.18,33-13.28a45.92,45.92,0,0,1,39.47,22.37l-19.64,11.51a22.87,22.87,0,0,0-20.21-11.08c-13.46,0-23.21,9.75-23.21,23.34,0,6.81,2.16,12.52,6.68,16.92A22.71,22.71,0,0,0,138.5,255c9.09,0,16.13-4.27,20.3-11.11l19.74,11.44c-7.69,13.81-22.71,22.46-39.66,22.46C125.31,277.78,114.52,273.45,105.61,264.54Z" transform="translate(-92.33 -107.3)" style="fill:#fff"/><path id="_Caminho_composto_2" data-name="&lt;Caminho composto&gt;" d="M436.45,196.3c6.29,6.47,9.43,15.21,9.43,26.57v53.65H423.34V225.67c0-11.71-6.82-18-17.3-18-11.71,0-19.23,7.17-19.23,21.68v47.18H364.27V189.14h22.54v9.79c5.42-8.22,14.16-12.24,26-12.24C422.47,186.69,430.33,189.84,436.45,196.3Z" transform="translate(-92.33 -107.3)" style="fill:#fff"/><path id="_Caminho_composto_3" data-name="&lt;Caminho composto&gt;" d="M505.9,264.54c-8.73-8.92-13.28-18.94-13.28-32.89,0-13.56,4.78-24,13.52-32.86,8.91-8.91,19.92-13.18,33-13.28a45.91,45.91,0,0,1,39.47,22.37L559,219.39a22.9,22.9,0,0,0-20.22-11.08c-13.46,0-23.21,9.75-23.21,23.34,0,6.81,2.16,12.52,6.68,16.92A22.71,22.71,0,0,0,538.79,255c9.09,0,16.13-4.27,20.3-11.11l19.75,11.44c-7.69,13.81-22.72,22.46-39.67,22.46C525.6,277.78,514.82,273.45,505.9,264.54Z" transform="translate(-92.33 -107.3)" style="fill:#fff"/><path id="_Caminho_composto_4" data-name="&lt;Caminho composto&gt;" d="M651.05,198.94c4.68-9.83,17.19-12.1,26.57-12.1v25.25a26.53,26.53,0,0,0-18.53,4.65c-5.41,3.67-8,9.61-8,18v41.77H628.51V189.12h22.54Z" transform="translate(-92.33 -107.3)" style="fill:#fff"/><path id="_Caminho_composto_5" data-name="&lt;Caminho composto&gt;" d="M744.65,240.92c1.57,11,11.42,18,24.88,18a28,28,0,0,0,17.67-6.67l16.07,11.57c-8.15,9.07-20,13.93-34.32,13.93-14.51,0-26.05-4.37-34.78-13.11s-13.11-19.74-13.11-33c0-13.1,4.37-24.11,12.93-32.85,8.57-8.91,19.75-13.28,33.21-13.28,12.76,0,23.42,4.37,31.63,13.28,8.39,8.91,12.58,19.75,12.58,32.85a59.5,59.5,0,0,1-.87,9.27Zm44.22-17.48c-1.67-15.1-12.82-19.72-21.67-19.72-10,0-21.21,4.62-22.9,19.72Z" transform="translate(-92.33 -107.3)" style="fill:#fff"/><path id="_Caminho_composto_6" data-name="&lt;Caminho composto&gt;" d="M986.1,240.92c1.57,11,11.42,18,24.88,18a28,28,0,0,0,17.67-6.67l16.06,11.57c-8.15,9.07-20,13.93-34.32,13.93-14.51,0-26-4.37-34.78-13.11s-13.11-19.74-13.11-33c0-13.1,4.37-24.11,12.94-32.85,8.56-8.91,19.74-13.28,33.2-13.28,12.76,0,23.42,4.37,31.63,13.28,8.39,8.91,12.59,19.75,12.59,32.85a58.37,58.37,0,0,1-.88,9.27Zm44.21-17.48c-1.66-15.1-12.82-19.72-21.67-19.72-10,0-21.2,4.62-22.89,19.72Z" transform="translate(-92.33 -107.3)" style="fill:#fff"/><path id="_Caminho_composto_7" data-name="&lt;Caminho composto&gt;" d="M915.65,211.9H895.91v35.84c0,9.44,6.81,9.61,19.74,8.91V277.1c-30.93,3.5-42.29-5.42-42.29-29.36V211.9h-15.2V189.14h15.2V166.37h22.55v22.77h19.74Z" transform="translate(-92.33 -107.3)" style="fill:#fff"/></g><path id="nucleo" d="M287.7,248.19a24.18,24.18,0,0,1-33,0,23.38,23.38,0,0,1,33-33.1,23.95,23.95,0,0,1,0,33.1Z" transform="translate(-92.33 -107.3)" style="fill:#fff"/><g id="part-of-accenture"><path d="M500.63,322.67h10.9a21.13,21.13,0,0,1,5.18.62,12,12,0,0,1,4.27,2,9.9,9.9,0,0,1,2.9,3.5,11.29,11.29,0,0,1,1.08,5.15v.21a11.51,11.51,0,0,1-1.08,5.22,9.74,9.74,0,0,1-2.9,3.53,11.84,11.84,0,0,1-4.27,2,21.13,21.13,0,0,1-5.18.62H505.3v15.57h-4.67Zm11.22,19.07q4.14,0,6.29-2a7.31,7.31,0,0,0,2.15-5.67v-.21c0-2.72-.76-4.65-2.26-5.77a10.06,10.06,0,0,0-6.18-1.7H505.3v15.31Z" transform="translate(-92.33 -107.3)" style="fill:#fff"/><path d="M540.1,322.67h6.13l13,38.4H554.6l-3.76-11H535l-3.7,11h-4.41Zm-3.81,23.64h13.32L543,326.54Z" transform="translate(-92.33 -107.3)" style="fill:#fff"/><path d="M566.63,322.67h11.55a21.63,21.63,0,0,1,5.18.6,12.21,12.21,0,0,1,4.27,1.88,9.24,9.24,0,0,1,2.9,3.3,10.27,10.27,0,0,1,1.08,4.91v.22a10.76,10.76,0,0,1-.75,4.16,9.43,9.43,0,0,1-2,3.06,11,11,0,0,1-3,2.07,15.33,15.33,0,0,1-3.71,1.18l11.76,17h-5.21l-11.44-16.7h-5.9v16.7h-4.68Zm11.87,18c2.76,0,4.85-.59,6.29-1.78a6.49,6.49,0,0,0,2.15-5.31v-.22a8,8,0,0,0-.6-3.27,5.2,5.2,0,0,0-1.66-2.15,6.89,6.89,0,0,0-2.66-1.16,16.59,16.59,0,0,0-3.52-.35h-7.19v14.24Z" transform="translate(-92.33 -107.3)" style="fill:#fff"/><path d="M608.1,326.43H596.92v-3.76h27v3.76H612.77v34.64H608.1Z" transform="translate(-92.33 -107.3)" style="fill:#fff"/><path d="M662.34,361.56a19.23,19.23,0,0,1-7.76-1.53,18.26,18.26,0,0,1-6-4.16,18.73,18.73,0,0,1-3.86-6.18,20.68,20.68,0,0,1-1.37-7.57v-.43A21.08,21.08,0,0,1,644.7,334a18.51,18.51,0,0,1,3.86-6.2,18.27,18.27,0,0,1,6-4.14,20.46,20.46,0,0,1,15.38,0,18,18,0,0,1,5.91,4.14,18.25,18.25,0,0,1,3.81,6.18,21.05,21.05,0,0,1,1.35,7.57V342a21.3,21.3,0,0,1-1.35,7.63,18.89,18.89,0,0,1-3.78,6.2A17.67,17.67,0,0,1,670,360,18.6,18.6,0,0,1,662.34,361.56Zm0-3.76a13.83,13.83,0,0,0,5.77-1.16,12.31,12.31,0,0,0,4.33-3.23,14.94,14.94,0,0,0,2.74-5,20.34,20.34,0,0,0,1-6.41v-.43a19.23,19.23,0,0,0-.94-6.09,14.69,14.69,0,0,0-2.71-5,13,13,0,0,0-4.35-3.34,13.44,13.44,0,0,0-5.91-1.24,14.7,14.7,0,0,0-6,1.16,12.26,12.26,0,0,0-4.43,3.26,14.49,14.49,0,0,0-2.74,5,20.32,20.32,0,0,0-.94,6.34v.43a17.84,17.84,0,0,0,1.1,6.38,15.43,15.43,0,0,0,3,5,13.46,13.46,0,0,0,4.48,3.21A13.82,13.82,0,0,0,662.34,357.8Z" transform="translate(-92.33 -107.3)" style="fill:#fff"/><path d="M689.41,322.67h22.45v3.76H694.08v13.65h13.86v3.75H694.08v17.24h-4.67Z" transform="translate(-92.33 -107.3)" style="fill:#fff"/><path d="M743.92,322.67H750l13,38.4h-4.62l-3.76-11H738.82l-3.71,11h-4.4Zm-3.81,23.64h13.32l-6.66-19.77Z" transform="translate(-92.33 -107.3)" style="fill:#fff"/><path d="M784.36,361.56a19.46,19.46,0,0,1-7.49-1.37,15.7,15.7,0,0,1-5.64-3.92,17.22,17.22,0,0,1-3.57-6.12,24.61,24.61,0,0,1-1.24-8v-.43a22.14,22.14,0,0,1,1.35-7.84,18.71,18.71,0,0,1,3.76-6.23,16.81,16.81,0,0,1,5.72-4.09,17.87,17.87,0,0,1,7.22-1.45,19.57,19.57,0,0,1,5.69.81,15.26,15.26,0,0,1,4.78,2.36,12.51,12.51,0,0,1,3.44,3.92,14.09,14.09,0,0,1,1.67,5.48h-4.62a10.7,10.7,0,0,0-3.36-6.59c-1.74-1.48-4.25-2.22-7.55-2.22a12.9,12.9,0,0,0-5.45,1.13,11.89,11.89,0,0,0-4.16,3.17,14.7,14.7,0,0,0-2.68,5,20.87,20.87,0,0,0-1,6.56v.43a22.08,22.08,0,0,0,.91,6.58,14.18,14.18,0,0,0,2.61,4.94,11.08,11.08,0,0,0,4.13,3.08,13.62,13.62,0,0,0,5.56,1.08,12.41,12.41,0,0,0,7.79-2.35,10.6,10.6,0,0,0,3.81-7.1h4.35q-1,6.66-5.32,9.93A17.15,17.15,0,0,1,784.36,361.56Z" transform="translate(-92.33 -107.3)" style="fill:#fff"/><path d="M824.21,361.56a19.46,19.46,0,0,1-7.49-1.37,15.7,15.7,0,0,1-5.64-3.92,17.22,17.22,0,0,1-3.57-6.12,24.61,24.61,0,0,1-1.24-8v-.43a22.14,22.14,0,0,1,1.35-7.84,18.71,18.71,0,0,1,3.76-6.23,16.81,16.81,0,0,1,5.72-4.09,17.87,17.87,0,0,1,7.22-1.45,19.57,19.57,0,0,1,5.69.81,15.26,15.26,0,0,1,4.78,2.36,12.51,12.51,0,0,1,3.44,3.92,14.09,14.09,0,0,1,1.67,5.48h-4.62a10.7,10.7,0,0,0-3.36-6.59c-1.74-1.48-4.25-2.22-7.55-2.22a12.9,12.9,0,0,0-5.45,1.13,11.89,11.89,0,0,0-4.16,3.17,14.7,14.7,0,0,0-2.68,5,20.87,20.87,0,0,0-1,6.56v.43a22.08,22.08,0,0,0,.91,6.58,14.18,14.18,0,0,0,2.61,4.94,11.08,11.08,0,0,0,4.13,3.08,13.62,13.62,0,0,0,5.56,1.08,12.41,12.41,0,0,0,7.79-2.35,10.6,10.6,0,0,0,3.81-7.1h4.35q-1,6.66-5.32,9.93A17.15,17.15,0,0,1,824.21,361.56Z" transform="translate(-92.33 -107.3)" style="fill:#fff"/><path d="M848,322.67h22.4v3.76H852.68v13.11H867v3.76H852.68v14h18.69v3.75H848Z" transform="translate(-92.33 -107.3)" style="fill:#fff"/><path d="M879.05,322.67h6.07l18.69,31.74V322.67h4.45v38.4h-5.37L883.5,328.15v32.92h-4.45Z" transform="translate(-92.33 -107.3)" style="fill:#fff"/><path d="M926.47,326.43H915.3v-3.76h27v3.76H931.14v34.64h-4.67Z" transform="translate(-92.33 -107.3)" style="fill:#fff"/><path d="M962.83,361.56q-6.66,0-10.23-3.73T949,347.06V322.67h4.67v23.92a21.19,21.19,0,0,0,.54,5.15,8.45,8.45,0,0,0,1.66,3.47,6.47,6.47,0,0,0,2.87,2,12.63,12.63,0,0,0,4.17.62,14.31,14.31,0,0,0,4.11-.54,6.77,6.77,0,0,0,3.06-1.89,8.88,8.88,0,0,0,1.93-3.63,21.19,21.19,0,0,0,.67-5.85V322.67h4.67v23.8q0,7-3.57,11.06T962.83,361.56Z" transform="translate(-92.33 -107.3)" style="fill:#fff"/><path d="M987.37,322.67h11.55a21.63,21.63,0,0,1,5.18.6,12.21,12.21,0,0,1,4.27,1.88,9.24,9.24,0,0,1,2.9,3.3,10.27,10.27,0,0,1,1.08,4.91v.22a10.57,10.57,0,0,1-.76,4.16,9.12,9.12,0,0,1-2,3.06,10.83,10.83,0,0,1-3,2.07,15.47,15.47,0,0,1-3.71,1.18l11.76,17h-5.21L998,344.37h-5.9v16.7h-4.68Zm11.87,18c2.76,0,4.85-.59,6.29-1.78a6.48,6.48,0,0,0,2.14-5.31v-.22a8,8,0,0,0-.59-3.27,5.2,5.2,0,0,0-1.66-2.15,6.89,6.89,0,0,0-2.66-1.16,16.59,16.59,0,0,0-3.52-.35h-7.19v14.24Z" transform="translate(-92.33 -107.3)" style="fill:#fff"/><path d="M1021.75,322.67h22.39v3.76h-17.72v13.11h14.28v3.76h-14.28v14h18.69v3.75h-23.36Z" transform="translate(-92.33 -107.3)" style="fill:#fff"/></g></svg>